<svg width="10" height="10" viewBox="0 0 10 10" fill="none" xmlns="http://www.w3.org/2000/svg">
<g id="Icon">
<path id="Vector" d="M9.41293 4.27034C9.60291 4.12516 9.50024 3.82171 9.26113 3.82171H6.36583C6.25616 3.82171 6.15929 3.75023 6.12695 3.64543L5.24035 0.77279C5.16785 0.537868 4.83537 0.537721 4.76265 0.77258L3.87322 3.64546C3.84078 3.75023 3.74383 3.82163 3.63415 3.82152L0.739845 3.81858C0.500632 3.81834 0.397714 4.1219 0.587751 4.26719L2.95392 6.07621C3.03718 6.13986 3.0719 6.2487 3.04087 6.34882L2.14103 9.25237C2.06896 9.48491 2.33798 9.67282 2.5315 9.5251L4.85007 7.75538C4.93968 7.68698 5.06398 7.68702 5.15355 7.75547L7.4691 9.52499C7.66251 9.6728 7.93161 9.48513 7.85976 9.25256L6.96263 6.34874C6.93171 6.24866 6.96646 6.13991 7.04969 6.07631L9.41293 4.27034Z" fill="#687183"/>
</g>
</svg>
