<svg width="25" height="24" viewBox="0 0 25 24" fill="none" xmlns="http://www.w3.org/2000/svg">
<path d="M21.4097 7.31757L14.5768 1.80117C13.9505 1.28523 13.1396 1 12.2992 1C11.4588 1 10.648 1.28523 10.0216 1.80117L3.18872 7.31757C2.827 7.61549 2.53835 7.98096 2.34199 8.38964C2.14562 8.79833 2.04606 9.24084 2.04991 9.68773V18.8538C2.04991 19.6882 2.40986 20.4885 3.05056 21.0785C3.69127 21.6685 4.56025 22 5.46635 22H19.1321C20.0382 22 20.9072 21.6685 21.5479 21.0785C22.1886 20.4885 22.5485 19.6882 22.5485 18.8538V9.67725C22.5508 9.23212 22.4504 8.79162 22.2541 8.38486C22.0578 7.97809 21.77 7.61432 21.4097 7.31757ZM14.5768 19.9025H10.0216V14.6588C10.0216 14.3806 10.1416 14.1139 10.3551 13.9172C10.5687 13.7205 10.8584 13.61 11.1604 13.61H13.438C13.7401 13.61 14.0297 13.7205 14.2433 13.9172C14.4569 14.1139 14.5768 14.3806 14.5768 14.6588V19.9025ZM20.2709 18.8538C20.2709 19.1319 20.1509 19.3987 19.9373 19.5953C19.7238 19.792 19.4341 19.9025 19.1321 19.9025H16.8545V14.6588C16.8545 13.8244 16.4945 13.0241 15.8538 12.4341C15.2131 11.844 14.3441 11.5125 13.438 11.5125H11.1604C10.2543 11.5125 9.38533 11.844 8.74462 12.4341C8.10391 13.0241 7.74397 13.8244 7.74397 14.6588V19.9025H5.46635C5.16432 19.9025 4.87465 19.792 4.66109 19.5953C4.44752 19.3987 4.32754 19.1319 4.32754 18.8538V9.67725C4.32774 9.52834 4.36238 9.38118 4.42914 9.24556C4.4959 9.10994 4.59326 8.98897 4.71473 8.89069L11.5476 3.38478C11.7554 3.21664 12.0226 3.12392 12.2992 3.12392C12.5758 3.12392 12.843 3.21664 13.0508 3.38478L19.8837 8.89069C20.0052 8.98897 20.1025 9.10994 20.1693 9.24556C20.2361 9.38118 20.2707 9.52834 20.2709 9.67725V18.8538Z" fill="#434C5E"/>
</svg>
