<svg width="48" height="48" viewBox="0 0 48 48" fill="none" xmlns="http://www.w3.org/2000/svg">
<path d="M40.1361 35.9067L39.9747 35.9874L39.4504 36.1891C34.4487 37.5205 29.326 38.166 24.163 38.166C18.6772 38.2467 13.2319 37.4802 7.98817 35.9471L7.86716 35.9067L1.37305 31.9933C3.79322 38.8115 9.15792 44.1774 16.0151 46.6384C21.1781 48.4539 26.8251 48.4539 31.9882 46.6384C38.805 44.2177 44.21 38.8519 46.6302 31.9933L40.1361 35.9067Z" fill="#9BEABB"/>
<path d="M48.001 24.0051L44.8952 28.4026L39.9742 35.9874L31.9473 46.6384C38.7641 44.2177 44.1691 38.8519 46.5893 31.9933C47.5574 29.4516 48.001 26.7485 48.001 24.0051Z" fill="#40C089"/>
<path d="M7.98851 35.9874L3.10784 28.4026L0.00195312 24.0051C0.00195312 26.7485 0.445651 29.4516 1.37338 31.9933C3.79355 38.8115 9.15826 44.1774 16.0154 46.6384L7.98851 35.9874Z" fill="#39C564"/>
<path d="M6.13305 7.98824C2.1801 12.3858 0.00195312 18.1147 0.00195312 24.005C0.00195312 26.7485 0.44565 29.4516 1.37338 31.9933C2.70447 35.7857 5.00363 39.1746 7.98851 41.8777V6.13239C7.34313 6.69721 6.73809 7.34272 6.13305 7.98824Z" fill="#00C5FF"/>
<path d="M48.0022 24.005C48.0022 17.1868 45.098 10.6913 40.0156 6.13239V41.8777C43.0005 39.1746 45.2997 35.7857 46.6308 31.9933C47.5585 29.4516 48.0022 26.7485 48.0022 24.005Z" fill="#AEE4FF"/>
<path d="M46.6308 16.0168C44.2106 9.19855 38.8459 3.79238 31.9887 1.3717C26.8257 -0.443806 21.1787 -0.443806 16.0156 1.3717L24.0022 7.01995L39.9753 18.3568L47.9618 24.005C48.0022 21.2616 47.5181 18.5585 46.6308 16.0168Z" fill="#C7A2FB"/>
<path d="M24.0022 42.846L16.0156 46.6384C21.1787 48.4539 26.8257 48.4539 31.9887 46.6384L24.0022 42.846Z" fill="#39C564"/>
<path d="M24.002 0C21.2994 0 18.5969 0.484135 16.0154 1.37172C6.4154 4.76066 0.00195312 13.8382 0.00195312 24.005L7.98851 18.3568L24.002 7.01996L31.9885 1.37172C29.407 0.484135 26.7045 0 24.002 0Z" fill="#3E4DE9"/>
<path d="M7.98828 6.13237V18.3568L16.0152 1.3717C13.0706 2.42066 10.3278 4.03445 7.98828 6.13237Z" fill="#366CED"/>
<path d="M6.13305 7.98824C2.1801 12.3858 0.00195312 18.1147 0.00195312 24.005L7.98851 18.3568V6.13239C7.34313 6.69721 6.73809 7.34272 6.13305 7.98824Z" fill="#0054ED"/>
<path d="M16.0152 1.3717L7.98828 18.3568L24.0017 7.01995L16.0152 1.3717Z" fill="#4F79ED"/>
<path d="M0.00195312 24.0051C0.00195312 26.7485 0.44565 29.4516 1.37338 31.9933L3.10784 28.3623L0.00195312 24.0051Z" fill="#00A2BB"/>
<path d="M7.98828 35.9874V41.918C10.3278 44.0159 13.0303 45.6297 16.0152 46.6787L7.98828 35.9874Z" fill="#39C564"/>
<path d="M3.1075 28.4026L1.37305 32.0336L7.98817 35.9874L3.1075 28.4026Z" fill="#00B5BB"/>
<path d="M7.86716 35.9067L1.37305 31.9933C2.70414 35.7857 5.0033 39.1746 7.98817 41.8777V35.9874L7.86716 35.9067Z" fill="#00A689"/>
<path d="M0.00195312 24.0051L3.10784 28.4026L7.98851 18.3568L0.00195312 24.0051Z" fill="#00B0FF"/>
<path d="M7.98809 18.3568L3.10742 28.4026L7.98809 35.9874V18.3568Z" fill="#00C5FF"/>
<path d="M7.98828 35.9874L16.0152 46.6383L24.0017 42.8459L7.98828 35.9874Z" fill="#5ED789"/>
<path d="M48.0024 24.0051C48.0024 26.7485 47.5587 29.4516 46.6309 31.9933L44.8965 28.3623L48.0024 24.0051Z" fill="#5385B8"/>
<path d="M40.0152 6.13237V18.3568L31.9883 1.3717C34.9328 2.42066 37.6757 4.03445 40.0152 6.13237Z" fill="#9B67F7"/>
<path d="M40.0152 35.9874V41.918C37.6757 44.0159 34.9732 45.6297 31.9883 46.6787L40.0152 35.9874Z" fill="#39C564"/>
<path d="M41.8711 7.98824C45.824 12.3858 48.0022 18.0744 48.0022 24.005L40.0156 18.3568V6.13239C40.661 6.69721 41.266 7.34272 41.8711 7.98824Z" fill="#6A5CF7"/>
<path d="M44.8963 28.4026L46.6308 32.0336L40.0156 35.9874L44.8963 28.4026Z" fill="#6AD1BB"/>
<path d="M40.1366 35.9067L46.6308 32.0336C45.2997 35.826 43.0005 39.215 40.0156 41.9181V35.9874L40.1366 35.9067Z" fill="#40C089"/>
<path d="M48.0022 24.0051L44.8963 28.4026L40.0156 18.3568L48.0022 24.0051Z" fill="#8891FB"/>
<path d="M40.0156 18.3568L44.8963 28.4026L40.0156 35.9874V18.3568Z" fill="#AEE4FF"/>
<path d="M31.9885 1.3717L40.0154 18.3568L24.002 7.01995L31.9885 1.3717Z" fill="#C7A2FB"/>
<path d="M40.0154 35.9874L31.9885 46.6383L24.002 42.8459L40.0154 35.9874Z" fill="#5ED789"/>
<path d="M24.2041 38.166C18.7184 38.2467 13.273 37.4801 8.0293 35.947V35.9874L24.0427 42.846L39.6932 36.1487C34.6108 37.4801 29.4074 38.166 24.2041 38.166Z" fill="#9BEABB"/>
</svg>
